<?xml version="1.0" encoding="utf-8"?>
<!-- Generator: Adobe Illustrator 16.0.0, SVG Export Plug-In . SVG Version: 6.00 Build 0)  -->
<!DOCTYPE svg PUBLIC "-//W3C//DTD SVG 1.1//EN" "http://www.w3.org/Graphics/SVG/1.1/DTD/svg11.dtd">
<svg version="1.1" id="Ebene_1" xmlns="http://www.w3.org/2000/svg" xmlns:xlink="http://www.w3.org/1999/xlink" x="0px" y="0px"
	 width="8503.94px" height="8503.94px" viewBox="0 0 8503.94 8503.94" enable-background="new 0 0 8503.94 8503.94"
	 xml:space="preserve">
<g>
	<g>
		<path d="M3633,2561.93c-0.162,87.356-0.323,174.712-0.485,262.067c-0.422,228.002-0.845,456.005-1.267,684.007
			c-0.588,317.551-1.176,635.103-1.764,952.653c-0.66,356.003-1.319,712.005-1.978,1068.007
			c-0.636,343.355-1.271,686.711-1.907,1030.066c-0.518,279.611-1.036,559.223-1.554,838.834
			c-0.305,164.768-0.61,329.537-0.915,494.307c-0.043,23.352-0.087,46.705-0.13,70.059c-0.428,231.135,193.193,424,424,424
			c231.455,0,423.572-192.875,424-424c0.162-87.355,0.324-174.713,0.485-262.068c0.423-228.002,0.845-456.004,1.267-684.006
			c0.588-317.551,1.176-635.104,1.764-952.654c0.66-356.002,1.318-712.004,1.979-1068.006
			c0.636-343.356,1.271-686.712,1.907-1030.067c0.519-279.611,1.036-559.222,1.554-838.833
			c0.305-164.769,0.609-329.538,0.915-494.307c0.044-23.353,0.087-46.706,0.13-70.059c0.428-231.135-193.193-424-424-424
			C3825.545,2137.93,3633.428,2330.805,3633,2561.93L3633,2561.93z"/>
	</g>
</g>
<g>
	<g>
		<path d="M4346.813,7662.116c-22.81-22.471-45.618-44.941-68.427-67.412c-62.26-61.338-124.52-122.674-186.779-184.012
			c-92.461-91.092-184.921-182.182-277.382-273.273c-113.412-111.73-226.824-223.463-340.236-335.195
			c-125.113-123.26-250.226-246.52-375.339-369.777c-127.564-125.676-255.129-251.35-382.693-377.023
			c-120.765-118.977-241.531-237.954-362.296-356.93c-104.717-103.166-209.434-206.332-314.151-309.498
			c-79.418-78.242-158.837-156.482-238.255-234.725c-44.87-44.205-89.74-88.41-134.609-132.615
			c-6.611-6.514-13.221-13.025-19.832-19.539c-80.024-78.838-187.104-124.186-299.813-124.186
			c-112.003,0-220.656,45.029-299.813,124.186C968.03,5081.274,923,5189.927,923,5301.931c0,111.296,44.721,221.523,124.187,299.813
			c22.809,22.471,45.618,44.941,68.427,67.412c62.26,61.338,124.52,122.676,186.779,184.014
			c92.46,91.09,184.921,182.182,277.382,273.273c113.412,111.73,226.824,223.463,340.236,335.195
			c125.113,123.258,250.226,246.518,375.339,369.777c127.564,125.676,255.129,251.35,382.693,377.023
			c120.765,118.977,241.531,237.953,362.296,356.93c104.717,103.166,209.434,206.332,314.151,309.496
			c79.418,78.242,158.837,156.484,238.255,234.727c44.87,44.205,89.74,88.41,134.61,132.615c6.61,6.512,13.221,13.025,19.831,19.537
			c80.024,78.84,187.104,124.188,299.813,124.188c112.003,0,220.656-45.029,299.813-124.188
			c79.157-79.156,124.187-187.809,124.187-299.813C4471,7850.634,4426.279,7740.405,4346.813,7662.116L4346.813,7662.116z"/>
	</g>
</g>
<g>
	<g>
		<path d="M4346.813,8261.743c22.118-22.805,44.237-45.607,66.355-68.412c60.327-62.197,120.653-124.396,180.981-186.594
			c89.491-92.266,178.982-184.533,268.475-276.799c109.613-113.014,219.227-226.025,328.84-339.037
			c120.691-124.434,241.383-248.867,362.074-373.301c122.727-126.533,245.453-253.064,368.18-379.596
			c115.717-119.307,231.435-238.611,347.152-357.918c99.666-102.756,199.331-205.512,298.996-308.268
			c74.57-76.883,149.141-153.766,223.711-230.647c40.432-41.685,80.863-83.37,121.295-125.056c4.646-4.791,9.293-9.582,13.94-14.373
			c78.495-80.93,124.187-186.365,124.187-299.813c0-112.004-45.029-220.656-124.187-299.814
			c-79.157-79.156-187.81-124.186-299.813-124.186c-110.557,0-222.433,44.406-299.813,124.186
			c-22.118,22.805-44.237,45.609-66.355,68.414c-60.327,62.197-120.653,124.395-180.981,186.592
			c-89.491,92.268-178.982,184.534-268.475,276.801c-109.613,113.012-219.227,226.024-328.84,339.037
			c-120.691,124.434-241.383,248.867-362.074,373.301c-122.727,126.531-245.453,253.064-368.18,379.596
			c-115.717,119.305-231.435,238.611-347.152,357.916c-99.666,102.758-199.331,205.514-298.997,308.27
			c-74.57,76.883-149.14,153.764-223.71,230.646c-40.432,41.686-80.863,83.371-121.294,125.057
			c-4.647,4.791-9.294,9.58-13.941,14.371C3668.691,7743.048,3623,7848.483,3623,7961.931c0,112.004,45.03,220.656,124.187,299.813
			c79.157,79.158,187.81,124.188,299.813,124.188C4157.557,8385.931,4269.433,8341.524,4346.813,8261.743L4346.813,8261.743z"/>
	</g>
</g>
<text transform="matrix(1 0 0 1 1347 1937)" font-family="'BalooBhaina2-SemiBold'" font-size="1118">Learn more</text>
</svg>
