<?xml version="1.0" encoding="utf-8"?>
<!-- Generator: Adobe Illustrator 16.0.0, SVG Export Plug-In . SVG Version: 6.00 Build 0)  -->
<!DOCTYPE svg PUBLIC "-//W3C//DTD SVG 1.1//EN" "http://www.w3.org/Graphics/SVG/1.1/DTD/svg11.dtd">
<svg version="1.1" id="Ebene_1" xmlns="http://www.w3.org/2000/svg" xmlns:xlink="http://www.w3.org/1999/xlink" x="0px" y="0px"
	 width="8503.94px" height="8503.94px" viewBox="0 0 8503.94 8503.94" enable-background="new 0 0 8503.94 8503.94"
	 xml:space="preserve">
<g>
	<line fill="#FFFFFF" x1="4057" y1="2501.93" x2="4047" y2="7901.931"/>
	<g>
		<path fill="#FFFFFF" d="M3633,2501.93c-0.162,87.356-0.323,174.711-0.485,262.068c-0.422,228.002-0.845,456.004-1.267,684.007
			c-0.588,317.551-1.176,635.103-1.764,952.653c-0.66,356.002-1.319,712.004-1.978,1068.007
			c-0.636,343.355-1.271,686.711-1.907,1030.066c-0.518,279.611-1.036,559.222-1.554,838.833
			c-0.305,164.77-0.61,329.538-0.915,494.307c-0.043,23.354-0.087,46.707-0.13,70.06c-0.428,231.135,193.193,424,424,424
			c231.455,0,423.572-192.874,424-424c0.162-87.356,0.324-174.712,0.485-262.067c0.423-228.002,0.845-456.005,1.267-684.008
			c0.588-317.551,1.176-635.102,1.764-952.652c0.66-356.003,1.318-712.005,1.979-1068.008
			c0.636-343.355,1.271-686.711,1.907-1030.066c0.519-279.611,1.036-559.222,1.554-838.833
			c0.305-164.769,0.609-329.538,0.915-494.307c0.044-23.353,0.087-46.706,0.13-70.059c0.428-231.135-193.193-424-424-424
			C3825.545,2077.93,3633.428,2270.805,3633,2501.93L3633,2501.93z"/>
	</g>
</g>
<g>
	<line fill="#FFFFFF" x1="4047" y1="7901.931" x2="1347" y2="5241.931"/>
	<g>
		<path fill="#FFFFFF" d="M4346.813,7602.117c-22.81-22.471-45.618-44.941-68.427-67.412
			c-62.26-61.338-124.52-122.676-186.779-184.013c-92.461-91.091-184.921-182.182-277.382-273.272
			c-113.412-111.732-226.824-223.464-340.236-335.195c-125.113-123.26-250.226-246.52-375.339-369.779
			c-127.564-125.674-255.129-251.349-382.693-377.023c-120.765-118.977-241.531-237.953-362.296-356.93
			c-104.717-103.165-209.434-206.33-314.151-309.496c-79.418-78.242-158.837-156.484-238.255-234.726
			c-44.87-44.205-89.74-88.41-134.609-132.615c-6.611-6.513-13.221-13.025-19.832-19.538
			c-80.024-78.838-187.104-124.187-299.813-124.187c-112.003,0-220.656,45.03-299.813,124.187
			C968.03,5021.274,923,5129.928,923,5241.931c0,111.296,44.721,221.524,124.187,299.813c22.809,22.471,45.618,44.941,68.427,67.412
			c62.26,61.338,124.52,122.676,186.779,184.013c92.46,91.091,184.921,182.182,277.382,273.272
			c113.412,111.732,226.824,223.464,340.236,335.195c125.113,123.26,250.226,246.52,375.339,369.779
			c127.564,125.674,255.129,251.349,382.693,377.023c120.765,118.977,241.531,237.953,362.296,356.93
			c104.717,103.165,209.434,206.33,314.151,309.496c79.418,78.242,158.837,156.484,238.255,234.726
			c44.87,44.205,89.74,88.41,134.61,132.615c6.61,6.513,13.221,13.025,19.831,19.538c80.024,78.838,187.104,124.187,299.813,124.187
			c112.003,0,220.656-45.03,299.813-124.187c79.157-79.157,124.187-187.811,124.187-299.813
			C4471,7790.635,4426.279,7680.406,4346.813,7602.117L4346.813,7602.117z"/>
	</g>
</g>
<g>
	<line fill="#FFFFFF" x1="4047" y1="7901.931" x2="6627" y2="5241.931"/>
	<g>
		<path fill="#FFFFFF" d="M4346.813,8201.744c22.118-22.805,44.237-45.609,66.355-68.413
			c60.327-62.198,120.653-124.396,180.981-186.593c89.491-92.268,178.982-184.533,268.475-276.801
			c109.613-113.012,219.227-226.023,328.84-339.036c120.691-124.434,241.383-248.868,362.074-373.302
			c122.727-126.531,245.453-253.063,368.18-379.595c115.717-119.306,231.435-238.611,347.152-357.917
			c99.666-102.756,199.331-205.512,298.996-308.268c74.57-76.883,149.141-153.766,223.711-230.648
			c40.432-41.685,80.863-83.369,121.295-125.055c4.646-4.791,9.293-9.582,13.94-14.373
			c78.495-80.93,124.187-186.366,124.187-299.813c0-112.003-45.029-220.656-124.187-299.813
			c-79.157-79.156-187.81-124.187-299.813-124.187c-110.557,0-222.433,44.407-299.813,124.187
			c-22.118,22.805-44.237,45.609-66.355,68.414c-60.327,62.197-120.653,124.395-180.981,186.592
			c-89.491,92.268-178.982,184.533-268.475,276.801c-109.613,113.012-219.227,226.023-328.84,339.036
			c-120.691,124.434-241.383,248.868-362.074,373.302c-122.727,126.531-245.453,253.063-368.18,379.595
			c-115.717,119.306-231.435,238.611-347.152,357.917c-99.666,102.756-199.331,205.512-298.997,308.268
			c-74.57,76.883-149.14,153.766-223.71,230.648c-40.432,41.685-80.863,83.369-121.294,125.055
			c-4.647,4.791-9.294,9.582-13.941,14.373c-78.496,80.93-124.187,186.366-124.187,299.813c0,112.003,45.03,220.656,124.187,299.813
			c79.157,79.156,187.81,124.187,299.813,124.187C4157.557,8325.931,4269.433,8281.523,4346.813,8201.744L4346.813,8201.744z"/>
	</g>
</g>
</svg>
