<?xml version="1.0" encoding="utf-8"?>
<!-- Generator: Adobe Illustrator 16.0.0, SVG Export Plug-In . SVG Version: 6.00 Build 0)  -->
<!DOCTYPE svg PUBLIC "-//W3C//DTD SVG 1.1//EN" "http://www.w3.org/Graphics/SVG/1.1/DTD/svg11.dtd">
<svg version="1.1" id="Ebene_1" xmlns="http://www.w3.org/2000/svg" xmlns:xlink="http://www.w3.org/1999/xlink" x="0px" y="0px"
	 width="8503.94px" height="8503.94px" viewBox="0 0 8503.94 8503.94" enable-background="new 0 0 8503.94 8503.94"
	 xml:space="preserve">
<g>
	<g>
		<path d="M1575.263,2698.56c43.82,36.348,87.64,72.696,131.459,109.045c118.587,98.367,237.175,196.735,355.762,295.103
			c174.048,144.372,348.096,288.744,522.144,433.116c210.201,174.36,420.402,348.722,630.603,523.082
			c227.046,188.334,454.093,376.669,681.14,565.003c224.585,186.291,449.17,372.584,673.755,558.876
			c202.816,168.235,405.633,336.47,608.448,504.704c161.739,134.162,323.479,268.324,485.218,402.486
			c101.356,84.074,202.712,168.148,304.068,252.223c24.775,20.552,49.553,41.104,74.328,61.656
			c23.883,18.45,47.764,36.901,71.646,55.352c55.213,32.023,114.77,48.133,178.67,48.332c93.512,0,184.228-37.596,250.316-103.684
			c66.088-66.089,103.684-156.805,103.684-250.316c0-86.166-34.885-193.248-103.684-250.316
			c-43.82-36.348-87.641-72.695-131.459-109.044c-118.588-98.368-237.176-196.735-355.764-295.104
			c-174.047-144.372-348.096-288.743-522.144-433.116c-210.201-174.36-420.401-348.721-630.603-523.082
			c-227.047-188.334-454.094-376.668-681.141-565.002c-224.585-186.292-449.17-372.584-673.755-558.876
			c-202.816-168.235-405.632-336.469-608.448-504.705c-161.739-134.162-323.479-268.324-485.219-402.486
			c-101.355-84.074-202.711-168.148-304.066-252.222c-24.777-20.552-49.553-41.104-74.33-61.656
			c-23.882-18.451-47.764-36.902-71.646-55.353c-55.214-32.022-114.771-48.133-178.67-48.332
			c-93.512,0-184.228,37.596-250.316,103.684c-66.088,66.089-103.684,156.804-103.684,250.316
			C1471.579,2534.41,1506.465,2641.491,1575.263,2698.56L1575.263,2698.56z"/>
	</g>
</g>
<g>
	<g>
		<path d="M2075.542,6403.5c44.354-36.782,88.708-73.564,133.063-110.346c120.034-99.541,240.068-199.082,360.103-298.623
			c176.171-146.095,352.342-292.188,528.514-438.283c212.765-176.439,425.53-352.881,638.296-529.321
			c229.816-190.581,459.633-381.161,689.449-571.741c227.325-188.515,454.649-377.029,681.974-565.543
			c205.291-170.242,410.58-340.483,615.871-510.725c163.712-135.762,327.425-271.525,491.137-407.288
			c102.593-85.077,205.185-170.153,307.777-255.23c25.078-20.797,50.156-41.594,75.236-62.392
			c68.704-56.975,103.537-163.927,103.537-249.962c0-93.38-37.543-183.967-103.537-249.962
			c-65.996-65.995-156.582-103.538-249.963-103.538c-31.324,4.209-62.649,8.418-93.975,12.627
			c-59.885,16.795-111.881,47.099-155.988,90.911c-44.354,36.781-88.708,73.563-133.063,110.345
			c-120.033,99.542-240.068,199.083-360.102,298.624c-176.172,146.094-352.343,292.188-528.514,438.282
			c-212.766,176.44-425.531,352.881-638.296,529.322c-229.817,190.58-459.633,381.161-689.449,571.742
			c-227.325,188.514-454.649,377.029-681.975,565.543c-205.29,170.241-410.58,340.482-615.87,510.725
			c-163.713,135.762-327.425,271.524-491.138,407.287c-102.592,85.076-205.185,170.153-307.776,255.23
			c-25.079,20.797-50.157,41.594-75.236,62.391c-68.705,56.976-103.538,163.928-103.538,249.963
			c0,93.381,37.542,183.967,103.538,249.963c65.995,65.994,156.582,103.537,249.962,103.537
			c31.325-4.209,62.649-8.418,93.974-12.627C1979.438,6477.614,2031.435,6447.311,2075.542,6403.5L2075.542,6403.5z"/>
	</g>
</g>
</svg>
