<?xml version="1.0" encoding="utf-8"?>
<!-- Generator: Adobe Illustrator 16.0.0, SVG Export Plug-In . SVG Version: 6.00 Build 0)  -->
<!DOCTYPE svg PUBLIC "-//W3C//DTD SVG 1.1//EN" "http://www.w3.org/Graphics/SVG/1.1/DTD/svg11.dtd">
<svg version="1.1" id="Ebene_1" xmlns="http://www.w3.org/2000/svg" xmlns:xlink="http://www.w3.org/1999/xlink" x="0px" y="0px"
	 width="8503.94px" height="8503.94px" viewBox="0 0 8503.94 8503.94" enable-background="new 0 0 8503.94 8503.94"
	 xml:space="preserve">
<g>
	<g>
		<path d="M1772,2913c60.583,0,121.166,0,181.749,0c158.124,0,316.248,0,474.372,0c220.228,0,440.455,0,660.683,0
			c246.895,0,493.789,0,740.683,0c238.123,0,476.247,0,714.37,0c193.916,0,387.831,0,581.746,0c114.271,0,228.541,0,342.811,0
			c16.196,0,32.393,0,48.588,0c199.514,0,366-166.486,366-366s-166.486-366-366-366c-60.583,0-121.166,0-181.748,0
			c-158.125,0-316.248,0-474.372,0c-220.228,0-440.456,0-660.683,0c-246.894,0-493.788,0-740.682,0c-238.123,0-476.247,0-714.37,0
			c-193.916,0-387.831,0-581.746,0c-114.271,0-228.541,0-342.812,0c-16.195,0-32.391,0-48.587,0c-199.514,0-366,166.486-366,366
			S1572.486,2913,1772,2913L1772,2913z"/>
	</g>
</g>
<g>
	<g>
		<path d="M1772,4244.36c88.844,0,177.687,0,266.53,0c231.86,0,463.72,0,695.579,0c322.87,0,645.74,0,968.61,0
			c361.875,0,723.749,0,1085.624,0c348.873,0,697.746,0,1046.619,0c283.865,0,567.731,0,851.598,0c166.852,0,333.704,0,500.557,0
			c23.294,0,46.588,0,69.883,0c190.246,0,349-158.753,349-349s-158.754-349-349-349c-88.844,0-177.688,0-266.53,0
			c-231.86,0-463.72,0-695.579,0c-322.871,0-645.74,0-968.611,0c-361.874,0-723.748,0-1085.623,0c-348.873,0-697.746,0-1046.619,0
			c-283.866,0-567.731,0-851.597,0c-166.852,0-333.705,0-500.557,0c-23.294,0-46.588,0-69.883,0c-190.247,0-349,158.753-349,349
			S1581.753,4244.36,1772,4244.36L1772,4244.36z"/>
	</g>
</g>
<g>
	<g>
		<path d="M1772,5755.471c48.126,0,96.253,0,144.38,0c125.612,0,251.225,0,376.837,0c174.947,0,349.895,0,524.842,0
			c196.131,0,392.262,0,588.393,0c189.163,0,378.327,0,567.49,0c154.045,0,308.09,0,462.135,0c90.775,0,181.551,0,272.326,0
			c12.866,0,25.732,0,38.598,0c93.381,0,183.967-37.543,249.963-103.537c65.994-65.996,103.537-156.582,103.537-249.963
			s-37.543-183.967-103.537-249.963c-65.996-65.994-156.582-103.537-249.963-103.537c-48.127,0-96.254,0-144.38,0
			c-125.612,0-251.225,0-376.837,0c-174.947,0-349.895,0-524.842,0c-196.131,0-392.262,0-588.393,0c-189.163,0-378.327,0-567.49,0
			c-154.045,0-308.09,0-462.135,0c-90.775,0-181.551,0-272.327,0c-12.866,0-25.731,0-38.597,0
			c-93.38,0-183.967,37.543-249.962,103.537c-65.995,65.996-103.538,156.582-103.538,249.963s37.542,183.967,103.538,249.963
			C1588.033,5717.928,1678.62,5755.471,1772,5755.471L1772,5755.471z"/>
	</g>
</g>
</svg>
