<?xml version="1.0" encoding="utf-8"?>
<!-- Generator: Adobe Illustrator 16.0.0, SVG Export Plug-In . SVG Version: 6.00 Build 0)  -->
<!DOCTYPE svg PUBLIC "-//W3C//DTD SVG 1.1//EN" "http://www.w3.org/Graphics/SVG/1.1/DTD/svg11.dtd">
<svg version="1.1" id="Ebene_1" xmlns="http://www.w3.org/2000/svg" xmlns:xlink="http://www.w3.org/1999/xlink" x="0px" y="0px"
	 width="8503.939px" height="8503.939px" viewBox="0 0 8503.939 8503.939" enable-background="new 0 0 8503.939 8503.939"
	 xml:space="preserve">
<g>
	<g>
		<path fill="#FFFFFF" d="M2302.5,1212c0.162,99.812,0.323,199.623,0.485,299.437c0.422,260.515,0.844,521.026,1.267,781.541
			c0.588,362.832,1.176,725.663,1.764,1088.495c0.659,406.766,1.319,813.531,1.979,1220.297
			c0.636,392.314,1.271,784.631,1.907,1176.945c0.518,319.481,1.036,638.963,1.554,958.444
			c0.305,188.265,0.61,376.526,0.915,564.791c0.043,26.685,0.087,53.365,0.13,80.049c0.304,187.79,156.477,344.5,344.5,344.5
			c187.563,0,344.805-156.703,344.5-344.5c-0.162-99.813-0.323-199.625-0.485-299.437c-0.422-260.515-0.845-521.027-1.267-781.543
			c-0.588-362.83-1.176-725.662-1.764-1088.494c-0.66-406.766-1.319-813.531-1.979-1220.295
			c-0.636-392.315-1.271-784.631-1.907-1176.946c-0.518-319.481-1.036-638.964-1.554-958.445
			c-0.305-188.265-0.61-376.526-0.915-564.791c-0.043-26.683-0.087-53.366-0.13-80.049c-0.305-187.79-156.477-344.5-344.5-344.5
			C2459.438,867.5,2302.196,1024.203,2302.5,1212L2302.5,1212z"/>
	</g>
</g>
<g>
	<g>
		<path fill="#FFFFFF" d="M5864,7452c-0.484-99.65-0.971-199.301-1.456-298.951c-1.267-260.092-2.533-520.185-3.8-780.274
			c-1.764-362.243-3.527-724.487-5.293-1086.731c-1.979-406.104-3.955-812.211-5.934-1218.317
			c-1.906-391.68-3.814-783.358-5.724-1175.039c-1.554-318.964-3.104-637.928-4.66-956.892
			c-0.914-187.959-1.83-375.918-2.746-563.877c-0.129-26.64-0.259-53.278-0.39-79.918c-0.975-200.047-166.203-367-367-367
			c-199.321,0-367.975,166.932-367,367c0.485,99.649,0.972,199.301,1.457,298.95c1.267,260.093,2.533,520.183,3.799,780.274
			c1.765,362.244,3.528,724.486,5.293,1086.729c1.979,406.106,3.955,812.214,5.935,1218.319
			c1.905,391.68,3.813,783.359,5.724,1175.039c1.553,318.963,3.104,637.928,4.66,956.891c0.914,187.959,1.83,375.918,2.746,563.877
			c0.129,26.64,0.258,53.278,0.389,79.918c0.975,200.047,166.203,367,367,367C5696.322,7819,5864.975,7652.067,5864,7452L5864,7452z
			"/>
	</g>
</g>
</svg>
