<?xml version="1.0" encoding="utf-8"?>
<!-- Generator: Adobe Illustrator 16.0.0, SVG Export Plug-In . SVG Version: 6.00 Build 0)  -->
<!DOCTYPE svg PUBLIC "-//W3C//DTD SVG 1.1//EN" "http://www.w3.org/Graphics/SVG/1.1/DTD/svg11.dtd">
<svg version="1.1" id="Ebene_1" xmlns="http://www.w3.org/2000/svg" xmlns:xlink="http://www.w3.org/1999/xlink" x="0px" y="0px"
	 width="8503.94px" height="8503.94px" viewBox="0 0 8503.94 8503.94" enable-background="new 0 0 8503.94 8503.94"
	 xml:space="preserve">
<g>
	<g>
		<path d="M2302.5,1212c0.162,99.812,0.323,199.624,0.485,299.437c0.422,260.514,0.844,521.027,1.267,781.541
			c0.588,362.832,1.176,725.663,1.764,1088.495c0.659,406.766,1.319,813.531,1.978,1220.297
			c0.636,392.314,1.271,784.631,1.907,1176.945c0.518,319.482,1.036,638.963,1.554,958.445
			c0.305,188.264,0.61,376.527,0.915,564.791c0.043,26.684,0.087,53.365,0.13,80.049c0.304,187.79,156.476,344.5,344.5,344.5
			c187.563,0,344.805-156.703,344.5-344.5c-0.162-99.813-0.323-199.625-0.485-299.437c-0.422-260.514-0.845-521.027-1.267-781.542
			c-0.588-362.831-1.176-725.662-1.764-1088.494c-0.66-406.766-1.319-813.531-1.978-1220.296
			c-0.636-392.315-1.271-784.631-1.907-1176.946c-0.518-319.481-1.036-638.963-1.554-958.445
			c-0.305-188.264-0.61-376.527-0.915-564.791c-0.043-26.683-0.087-53.366-0.13-80.049c-0.305-187.79-156.476-344.5-344.5-344.5
			C2459.437,867.5,2302.196,1024.203,2302.5,1212L2302.5,1212z"/>
	</g>
</g>
<g>
	<g>
		<path d="M5864,7452c-0.485-99.65-0.971-199.301-1.456-298.951c-1.267-260.092-2.533-520.184-3.8-780.274
			c-1.764-362.243-3.528-724.487-5.293-1086.731c-1.978-406.105-3.955-812.212-5.934-1218.318
			c-1.906-391.68-3.814-783.359-5.723-1175.039c-1.553-318.964-3.105-637.928-4.66-956.892
			c-0.914-187.958-1.83-375.917-2.746-563.876c-0.129-26.64-0.259-53.279-0.389-79.919c-0.975-200.046-166.203-367-367-367
			c-199.322,0-367.975,166.932-367,367c0.485,99.65,0.971,199.301,1.456,298.951c1.267,260.092,2.533,520.183,3.8,780.274
			c1.764,362.244,3.528,724.487,5.293,1086.73c1.978,406.106,3.955,812.213,5.934,1218.319
			c1.906,391.68,3.814,783.359,5.723,1175.039c1.553,318.963,3.105,637.927,4.66,956.891c0.914,187.959,1.83,375.917,2.746,563.876
			c0.129,26.64,0.259,53.279,0.389,79.919c0.975,200.046,166.203,367,367,367C5696.322,7819,5864.975,7652.068,5864,7452L5864,7452z
			"/>
	</g>
</g>
</svg>
