<?xml version="1.0" encoding="utf-8"?>
<!-- Generator: Adobe Illustrator 16.0.0, SVG Export Plug-In . SVG Version: 6.00 Build 0)  -->
<!DOCTYPE svg PUBLIC "-//W3C//DTD SVG 1.1//EN" "http://www.w3.org/Graphics/SVG/1.1/DTD/svg11.dtd">
<svg version="1.1" id="Ebene_1" xmlns="http://www.w3.org/2000/svg" xmlns:xlink="http://www.w3.org/1999/xlink" x="0px" y="0px"
	 width="8503.94px" height="8503.94px" viewBox="0 0 8503.94 8503.94" enable-background="new 0 0 8503.94 8503.94"
	 xml:space="preserve">
<g>
	<g>
		<path d="M1915,1207c0,97.671,0,195.342,0,293.013c0,254.898,0,509.795,0,764.694c0,354.951,0,709.902,0,1064.853
			c0,397.831,0,795.663,0,1193.493c0,383.539,0,767.076,0,1150.613c0,312.072,0,624.143,0,936.214c0,183.431,0,366.862,0,550.294
			c0,25.608,0,51.217,0,76.826c0,180.98,151.021,332,332,332s332-151.02,332-332c0-97.671,0-195.342,0-293.014
			c0-254.897,0-509.795,0-764.693c0-354.951,0-709.902,0-1064.854c0-397.83,0-795.662,0-1193.493c0-383.538,0-767.076,0-1150.614
			c0-312.071,0-624.142,0-936.213c0-183.431,0-366.862,0-550.293c0-25.609,0-51.218,0-76.827c0-180.979-151.021-332-332-332
			S1915,1026.021,1915,1207L1915,1207z"/>
	</g>
</g>
<g>
	<g>
		<path d="M2079.938,1492.809c50.137,33.387,100.273,66.773,150.41,100.16c134.396,89.495,268.79,178.99,403.186,268.484
			c194.631,129.607,389.262,259.213,583.893,388.82c230.845,153.722,461.689,307.443,692.534,461.165
			c243.036,161.84,486.073,323.68,729.108,485.52c231.205,153.962,462.41,307.923,693.615,461.885
			c195.353,130.087,390.704,260.173,586.056,390.26c135.476,90.215,270.952,180.43,406.429,270.645
			c51.578,34.346,103.155,68.691,154.733,103.039c0.013,0.008,0.024,0.016,0.036,0.023c71.812,47.82,173.711,55.743,255.055,33.367
			c82.737-22.758,154.473-78.122,197.816-152.113c44.781-76.445,56.867-169.622,33.367-255.055
			c-23.844-86.688-78.813-149.005-152.113-197.816c-50.137-33.387-100.273-66.773-150.41-100.159
			c-134.396-89.495-268.791-178.99-403.186-268.485c-194.631-129.607-389.262-259.213-583.893-388.82
			c-230.846-153.722-461.689-307.443-692.535-461.165c-243.035-161.84-486.072-323.68-729.107-485.52
			c-231.206-153.962-462.411-307.923-693.616-461.885c-195.352-130.087-390.704-260.173-586.055-390.26
			c-135.476-90.215-270.952-180.43-406.428-270.644c-51.578-34.346-103.156-68.693-154.734-103.039
			c-0.012-0.008-0.024-0.017-0.037-0.024c-71.811-47.82-173.709-55.743-255.055-33.368
			c-82.736,22.758-154.472,78.123-197.815,152.114c-44.781,76.445-56.868,169.622-33.368,255.055
			C1951.668,1381.68,2006.637,1443.997,2079.938,1492.809L2079.938,1492.809z"/>
	</g>
</g>
<g>
	<g>
		<path d="M2445.923,7473.101c47.858-33.021,95.717-66.042,143.575-99.063c128.469-88.641,256.938-177.281,385.407-265.922
			c186.42-128.626,372.841-257.252,559.261-385.877c221.712-152.977,443.425-305.953,665.137-458.93
			c234.345-161.691,468.689-323.385,703.034-485.076c224.318-154.775,448.636-309.549,672.954-464.323
			c191.632-132.222,383.264-264.442,574.896-396.665c136.286-94.034,272.572-188.068,408.859-282.104
			c58.281-40.213,116.563-80.426,174.845-120.639c0.677-0.467,1.354-0.935,2.031-1.401c23.915-18.478,47.831-36.954,71.747-55.431
			c43.936-44.232,74.324-96.376,91.167-156.43c25.169-91.499,12.224-191.291-35.736-273.163
			c-46.421-79.245-123.249-138.54-211.86-162.914c-85.868-23.62-197.693-16.335-273.163,35.736
			c-47.858,33.021-95.717,66.042-143.575,99.063c-128.469,88.641-256.938,177.281-385.407,265.922
			c-186.421,128.626-372.841,257.252-559.261,385.877c-221.713,152.977-443.424,305.953-665.137,458.93
			c-234.345,161.691-468.689,323.385-703.034,485.076c-224.318,154.775-448.636,309.549-672.954,464.323
			c-191.632,132.222-383.264,264.442-574.896,396.665c-136.287,94.034-272.573,188.068-408.859,282.104
			c-58.282,40.213-116.563,80.426-174.845,120.639c-0.677,0.467-1.354,0.935-2.031,1.401
			c-23.916,18.478-47.831,36.954-71.747,55.431c-43.935,44.232-74.325,96.376-91.167,156.43
			c-25.168,91.499-12.224,191.291,35.736,273.163c46.421,79.245,123.25,138.54,211.86,162.914
			C2258.628,7532.457,2370.454,7525.172,2445.923,7473.101L2445.923,7473.101z"/>
	</g>
</g>
</svg>
