<?xml version="1.0" encoding="utf-8"?>
<!-- Generator: Adobe Illustrator 16.0.0, SVG Export Plug-In . SVG Version: 6.00 Build 0)  -->
<!DOCTYPE svg PUBLIC "-//W3C//DTD SVG 1.1//EN" "http://www.w3.org/Graphics/SVG/1.1/DTD/svg11.dtd">
<svg version="1.1" id="Ebene_1" xmlns="http://www.w3.org/2000/svg" xmlns:xlink="http://www.w3.org/1999/xlink" x="0px" y="0px"
	 width="8503.939px" height="8503.939px" viewBox="0 0 8503.939 8503.939" enable-background="new 0 0 8503.939 8503.939"
	 xml:space="preserve">
<g>
	<g>
		<path fill="#FFFFFF" d="M2187.038,1227.004c0,97.671,0,195.343,0,293.014c0,254.896,0,509.795,0,764.693
			c0,354.95,0,709.901,0,1064.854c0,397.831,0,795.663,0,1193.493c0,383.539,0,767.076,0,1150.612c0,312.071,0,624.144,0,936.213
			c0,183.433,0,366.862,0,550.295c0,25.607,0,51.217,0,76.826c0,180.979,151.021,332,332,332s332-151.021,332-332
			c0-97.672,0-195.342,0-293.015c0-254.897,0-509.795,0-764.692c0-354.951,0-709.901,0-1064.854c0-397.83,0-795.662,0-1193.493
			c0-383.538,0-767.076,0-1150.614c0-312.07,0-624.142,0-936.213c0-183.431,0-366.861,0-550.293c0-25.607,0-51.218,0-76.827
			c0-180.979-151.021-332-332-332S2187.038,1046.024,2187.038,1227.004L2187.038,1227.004z"/>
	</g>
</g>
<g>
	<g>
		<path fill="#FFFFFF" d="M2351.977,1512.813c50.138,33.387,100.272,66.773,150.409,100.16
			c134.396,89.494,268.79,178.99,403.188,268.484c194.631,129.605,389.262,259.213,583.893,388.818
			c230.845,153.723,461.689,307.442,692.534,461.165c243.036,161.841,486.073,323.681,729.107,485.521
			c231.205,153.963,462.41,307.924,693.614,461.886c195.354,130.087,390.704,260.173,586.058,390.26
			c135.476,90.216,270.951,180.431,406.429,270.646c51.578,34.347,103.155,68.69,154.733,103.039
			c0.013,0.008,0.022,0.017,0.035,0.022c71.813,47.819,173.711,55.743,255.056,33.367c82.737-22.758,154.474-78.122,197.815-152.112
			c44.78-76.444,56.867-169.623,33.367-255.056c-23.845-86.688-78.813-149.005-152.112-197.814
			c-50.138-33.388-100.272-66.773-150.41-100.159c-134.396-89.495-268.791-178.99-403.187-268.484
			c-194.631-129.606-389.263-259.213-583.894-388.819c-230.847-153.722-461.688-307.443-692.535-461.165
			c-243.035-161.84-486.071-323.68-729.106-485.521c-231.205-153.962-462.41-307.923-693.615-461.885
			c-195.354-130.087-390.704-260.173-586.055-390.26c-135.478-90.217-270.952-180.432-406.43-270.646
			c-51.576-34.346-103.154-68.692-154.732-103.039c-0.012-0.008-0.024-0.017-0.037-0.022
			c-71.813-47.82-173.709-55.743-255.055-33.368c-82.736,22.758-154.474,78.123-197.815,152.112
			c-44.781,76.445-56.868,169.623-33.368,255.057C2223.706,1401.685,2278.675,1464,2351.977,1512.813L2351.977,1512.813z"/>
	</g>
</g>
<g>
	<g>
		<path fill="#FFFFFF" d="M2717.961,7493.104c47.857-33.021,95.718-66.042,143.575-99.063
			c128.469-88.641,256.938-177.281,385.407-265.922c186.42-128.625,372.841-257.252,559.261-385.877
			c221.712-152.977,443.425-305.953,665.137-458.93c234.347-161.691,468.688-323.385,703.035-485.076
			c224.317-154.775,448.636-309.549,672.953-464.322c191.633-132.223,383.265-264.441,574.896-396.666
			c136.287-94.033,272.572-188.066,408.859-282.104c58.279-40.213,116.563-80.426,174.846-120.639
			c0.676-0.467,1.354-0.937,2.029-1.401c23.916-18.478,47.832-36.954,71.748-55.431c43.936-44.232,74.324-96.377,91.166-156.432
			c25.17-91.499,12.225-191.291-35.734-273.163c-46.422-79.245-123.25-138.54-211.86-162.914
			c-85.867-23.62-197.692-16.335-273.162,35.736c-47.858,33.021-95.717,66.042-143.576,99.063
			c-128.469,88.642-256.938,177.281-385.406,265.923c-186.422,128.627-372.842,257.252-559.263,385.877
			c-221.713,152.978-443.424,305.953-665.137,458.931c-234.346,161.69-468.689,323.386-703.034,485.076
			c-224.317,154.774-448.636,309.549-672.954,464.323c-191.632,132.222-383.264,264.44-574.896,396.664
			c-136.287,94.035-272.572,188.067-408.858,282.104c-58.281,40.213-116.563,80.426-174.845,120.641
			c-0.678,0.467-1.354,0.935-2.03,1.399c-23.916,18.479-47.832,36.954-71.748,55.433c-43.935,44.23-74.324,96.375-91.166,156.43
			c-25.168,91.499-12.225,191.291,35.735,273.163c46.421,79.245,123.25,138.54,211.859,162.914
			C2530.666,7552.461,2642.492,7545.176,2717.961,7493.104L2717.961,7493.104z"/>
	</g>
</g>
</svg>
