<?xml version="1.0" encoding="utf-8"?>
<!-- Generator: Adobe Illustrator 16.0.0, SVG Export Plug-In . SVG Version: 6.00 Build 0)  -->
<!DOCTYPE svg PUBLIC "-//W3C//DTD SVG 1.1//EN" "http://www.w3.org/Graphics/SVG/1.1/DTD/svg11.dtd">
<svg version="1.1" id="Ebene_1" xmlns="http://www.w3.org/2000/svg" xmlns:xlink="http://www.w3.org/1999/xlink" x="0px" y="0px"
	 width="8503.939px" height="8503.939px" viewBox="0 0 8503.939 8503.939" enable-background="new 0 0 8503.939 8503.939"
	 xml:space="preserve">
<g>
	<g>
		<path fill="#FFFFFF" d="M7433.688,6736.688c-0.188,2.079-0.377,4.158-0.566,6.237c7.35-27.17,14.699-54.342,22.049-81.513
			c-1.167,1.66-2.334,3.319-3.502,4.979c19.313-19.313,38.625-38.625,57.938-57.938c54.138-25.332,29.754-13.064,6.48-8.961
			c-25.434,4.484-50.867,8.971-76.303,13.455c-94.935,16.738-189.869,33.479-284.804,50.219
			c-325.317,57.361-650.635,114.726-975.953,172.086c-428.172,75.5-856.344,150.998-1284.517,226.496
			c-437.734,77.185-875.47,154.369-1313.203,231.554c-354.006,62.422-708.011,124.842-1062.016,187.263
			c-176.982,31.207-353.966,62.414-530.949,93.621c-4.371,0.771-8.74,1.541-13.111,2.313c-17.643,3.111,4.796-7.906,31.939-5.492
			c27.171,7.352,54.342,14.7,81.512,22.051c-1.664-1.162-3.33-2.322-4.994-3.482c19.313,19.313,38.625,38.625,57.938,57.938
			c25.043,53.236,13.257,30.889,9.166,7.684c-4.292-24.342-8.584-48.684-12.877-73.024c-16.075-91.17-32.15-182.342-48.229-273.513
			c-55.563-315.115-111.125-630.229-166.688-945.344c-74.292-421.334-148.585-842.666-222.877-1264
			c-78.038-442.576-156.076-885.153-234.115-1327.729c-66.801-378.846-133.602-757.69-200.401-1136.538
			c-40.58-230.14-81.159-460.28-121.739-690.42c-4.292-24.341-8.584-48.684-12.876-73.025c-1.107-6.279-2.214-12.558-3.321-18.837
			c-3.411-19.345,7.819,1.609,5.209,30.306c-7.35,27.172-14.7,54.342-22.05,81.513c1.167-1.66,2.335-3.32,3.502-4.979
			c-19.313,19.313-38.625,38.625-57.938,57.938c-54.137,25.331-29.75,13.063-6.479,8.96c25.434-4.484,50.868-8.97,76.303-13.454
			c94.935-16.739,189.869-33.479,284.804-50.218c325.317-57.362,650.635-114.726,975.952-172.087
			c428.173-75.5,856.345-150.997,1284.517-226.495c437.735-77.185,875.47-154.369,1313.205-231.554
			c354.004-62.42,708.011-124.841,1062.015-187.262c176.983-31.207,353.967-62.414,530.949-93.621
			c4.371-0.771,8.741-1.541,13.11-2.312c17.644-3.11-4.783,7.905-31.938,5.491c-27.172-7.351-54.342-14.7-81.513-22.051
			c1.664,1.161,3.328,2.321,4.994,3.481c-19.313-19.313-38.625-38.625-57.938-57.938c-25.044-53.214-13.259-30.902-9.164-7.685
			c4.291,24.342,8.584,48.683,12.875,73.024c16.076,91.172,32.151,182.343,48.229,273.514
			c55.563,315.115,111.125,630.229,166.688,945.344c74.292,421.333,148.584,842.667,222.877,1264
			c78.038,442.577,156.076,885.152,234.114,1327.73c66.801,378.846,133.602,757.69,200.401,1136.537
			c40.579,230.14,81.159,460.279,121.739,690.42c5.774,32.75,11.549,65.502,17.324,98.252
			c15.303,86.781,119.912,134.461,198.664,112.797c90.773-24.969,128.069-112.049,112.799-198.664
			c-21.853-123.92-43.701-247.842-65.554-371.764c-55.563-315.115-111.126-630.23-166.688-945.346
			c-74.293-421.332-148.584-842.666-222.877-1264c-78.039-442.576-156.076-885.153-234.114-1327.73
			c-66.801-378.846-133.603-757.691-200.401-1136.537c-40.58-230.14-81.16-460.279-121.739-690.42
			c-5.774-32.75-11.55-65.501-17.324-98.252c-10.142-57.51-66.317-107.054-120.46-121.947c-33.936-9.334-58.277-6.525-92.225-0.539
			c-0.887,0.156-1.771,0.313-2.658,0.469c-5.028,0.888-10.059,1.773-15.088,2.66c-22.549,3.977-45.097,7.952-67.645,11.928
			c-229.984,40.554-459.969,81.105-689.954,121.658c-383.685,67.653-767.366,135.308-1151.05,202.961
			c-444.091,78.305-888.182,156.609-1332.271,234.916c-411.205,72.506-822.408,145.013-1233.613,217.519
			c-285.027,50.258-570.055,100.517-855.081,150.774c-66.043,11.646-132.086,23.291-198.13,34.936
			c-8.801,1.553-17.604,3.104-26.405,4.656c-57.505,10.14-107.101,66.295-121.994,120.441c-9.334,33.935-6.536,58.252-0.551,92.197
			c0.149,0.846,0.298,1.69,0.446,2.536c0.848,4.806,1.694,9.609,2.543,14.414c29.982,170.041,59.965,340.081,89.947,510.122
			c60.624,343.813,121.248,687.628,181.871,1031.441c76.281,432.611,152.563,865.226,228.844,1297.836
			c76.957,436.438,153.911,872.873,230.867,1309.311c62.646,355.286,125.293,710.57,187.939,1065.855
			c33.354,189.16,66.708,378.32,100.062,567.479c2.007,11.375,4.013,22.749,6.017,34.124c4.39,24.891,26.842,60.262,44.348,77.77
			c46.205,46.205,106.917,56.41,168.917,45.479c3.464-0.611,6.929-1.223,10.394-1.832c54.929-9.686,109.857-19.371,164.786-29.057
			c269.095-47.449,538.19-94.898,807.285-142.348c403.669-71.178,807.338-142.355,1211.007-213.533
			c444.951-78.457,889.9-156.914,1334.852-235.371c392.941-69.286,785.881-138.572,1178.822-207.857
			c247.637-43.666,495.275-87.33,742.913-130.996c119.669-21.102,234.687-25.625,249.733-191.021
			c7.989-87.815-79.508-161.5-161.5-161.5C7501.118,6575.188,7441.662,6649.051,7433.688,6736.688z"/>
	</g>
</g>
<g>
	
		<ellipse transform="matrix(-0.1736 -0.9848 0.9848 -0.1736 -73.5308 6103.9722)" fill="#FFFFFF" cx="2524.275" cy="3082.837" rx="758.456" ry="746.565"/>
	<g>
		<path fill="#FFFFFF" d="M3103.948,2996.03c1.852,10.586,3.5,21.202,4.944,31.853c-1.924-14.313-3.847-28.622-5.77-42.935
			c8.988,67.673,9.117,136.282,0.156,203.966c1.923-14.312,3.846-28.623,5.769-42.934c-9.024,66.789-26.816,132.158-52.889,194.306
			c5.427-12.858,10.854-25.719,16.28-38.579c-25.587,60.549-58.861,117.624-98.995,169.685
			c8.417-10.896,16.835-21.791,25.252-32.687c-38.998,50.313-84.177,95.586-134.509,134.564
			c10.896-8.417,21.791-16.835,32.687-25.252c-50.062,38.555-104.853,70.613-163.026,95.287c12.86-5.428,25.721-10.854,38.58-16.281
			c-60.276,25.367-123.692,42.61-188.478,51.498c14.312-1.923,28.622-3.846,42.933-5.77c-65.373,8.78-131.657,8.89-197.043,0.17
			c14.312,1.924,28.623,3.847,42.934,5.77c-64.852-8.83-128.285-26.251-188.605-51.638c12.859,5.427,25.72,10.854,38.578,16.28
			c-59.769-25.343-116.06-58.321-167.472-97.957c10.896,8.418,21.791,16.836,32.687,25.254
			c-51.084-39.598-96.996-85.527-136.587-136.615c8.418,10.896,16.835,21.79,25.253,32.686
			c-40.244-52.215-73.613-109.438-99.27-170.165c5.428,12.86,10.854,25.72,16.28,38.579
			c-26.488-63.173-44.437-129.645-53.642-197.518c1.924,14.311,3.847,28.622,5.77,42.933c-8.988-67.673-9.117-136.28-0.156-203.964
			c-1.923,14.311-3.846,28.622-5.769,42.934c9.024-66.789,26.817-132.157,52.889-194.307c-5.427,12.859-10.854,25.719-16.28,38.579
			c25.588-60.549,58.861-117.624,98.996-169.684c-8.416,10.895-16.834,21.79-25.252,32.686
			c38.998-50.312,84.177-95.586,134.508-134.564c-10.896,8.418-21.791,16.835-32.687,25.253
			c50.063-38.555,104.854-70.613,163.026-95.287c-12.86,5.427-25.72,10.854-38.579,16.281
			c60.276-25.367,123.692-42.61,188.478-51.498c-14.312,1.923-28.623,3.846-42.934,5.769c65.373-8.78,131.658-8.889,197.043-0.17
			c-14.311-1.923-28.622-3.846-42.934-5.769c64.853,8.83,128.285,26.25,188.606,51.638c-12.858-5.427-25.719-10.854-38.579-16.28
			c59.77,25.342,116.061,58.322,167.472,97.957c-10.896-8.418-21.791-16.835-32.686-25.253
			c51.084,39.596,96.996,85.527,136.587,136.615c-8.418-10.896-16.835-21.791-25.253-32.687
			c40.243,52.215,73.612,109.438,99.269,170.165c-5.427-12.858-10.854-25.719-16.279-38.579
			C3077.576,2883.609,3093.845,2939.189,3103.948,2996.03c5.427,12.859,10.854,25.72,16.28,38.579
			c14.357,24.269,33.67,43.581,57.938,57.938c37.299,21.849,82.761,27.746,124.445,16.28c40.368-11.104,75.37-38.117,96.517-74.22
			c5.428-12.86,10.854-25.72,16.281-38.579c7.691-28.622,7.691-57.244,0-85.865c-14.646-82.405-43.495-160.737-79.314-236.234
			c-34.616-72.962-81.933-139.174-134.259-200.448c-51.643-60.474-113.585-111.78-178.878-156.866
			c-65.38-45.147-138.494-78.892-213.173-105.491c-75.996-27.069-156.875-40.565-237.144-46.32
			c-34.195-2.452-68.558-2.351-102.754-0.001c-48.599,3.336-97.348,10.079-145.024,20.095
			c-33.947,7.132-67.351,16.779-99.954,28.607c-44.278,16.063-88.04,34.782-129.754,56.731
			c-29.633,15.594-58.118,33.338-85.343,52.821c-37.561,26.878-74.283,55.623-108.029,87.235
			c-24.149,22.623-46.694,46.94-67.646,72.549c-29.197,35.689-57.33,72.623-81.736,111.803
			c-17.553,28.178-33.137,57.565-46.856,87.79c-19.271,42.458-37.22,85.802-50.879,130.436
			c-9.879,32.278-17.473,65.245-22.979,98.544c-7.815,47.275-13.935,95.181-15.454,143.13c-1.109,34.976,0.332,70.017,3.987,104.813
			c5.154,49.075,12.155,98.285,23.848,146.283c8.286,34.017,19.012,67.424,31.845,99.992c17.415,44.2,36.31,88.014,59.421,129.57
			c16.412,29.509,34.903,57.847,55.085,84.91c27.837,37.327,56.565,73.898,88.995,107.35c23.11,23.836,47.867,46.061,73.889,66.67
			c36.303,28.751,72.976,56.62,112.682,80.491c28.358,17.05,57.899,32.112,88.256,45.271c42.804,18.555,85.591,36.213,130.48,48.999
			c32.196,9.171,65.043,16.013,98.185,20.71c47.438,6.727,94.452,12.654,142.392,12.872c48.67,0.222,96.361-5.884,144.521-12.491
			c34.797-4.772,69.206-11.931,103.011-21.464c45.9-12.944,89.761-31.257,133.411-50.348c30.88-13.505,60.756-29.272,89.48-46.896
			c39.545-24.266,76.551-52.763,112.479-82.007c25.701-20.919,49.903-43.657,72.592-67.802
			c31.578-33.604,60.033-70.395,86.983-107.729c19.39-26.86,36.901-55.063,52.614-84.222c22.058-40.933,40.319-84.155,56.92-127.515
			c11.998-31.34,21.791-63.51,29.549-96.154c9.167-38.576,14.221-77.646,19.423-116.934c3.426-25.875,5.551-51.889,6.378-77.978
			c2.131-67.241-5.679-134.635-17.248-200.771c-5.427-12.859-10.854-25.72-16.281-38.579c-14.356-24.269-33.67-43.581-57.938-57.938
			c-37.299-21.849-82.762-27.746-124.445-16.28c-40.369,11.104-75.37,38.117-96.518,74.22c-5.427,12.86-10.854,25.72-16.28,38.579
			C3096.256,2938.787,3096.256,2967.408,3103.948,2996.03z"/>
	</g>
</g>
<g>
	
		<ellipse transform="matrix(-0.1736 -0.9848 0.9848 -0.1736 3922.9268 8332.252)" fill="#FFFFFF" cx="5457.421" cy="2520.186" rx="758.458" ry="746.565"/>
	<g>
		<path fill="#FFFFFF" d="M6037.088,2433.237c1.852,10.586,3.5,21.202,4.945,31.853c-1.924-14.313-3.848-28.622-5.771-42.935
			c8.987,67.673,9.117,136.282,0.155,203.964c1.922-14.311,3.847-28.621,5.769-42.933c-9.024,66.789-26.815,132.157-52.89,194.306
			c5.429-12.858,10.854-25.719,16.281-38.579c-25.588,60.55-58.861,117.624-98.996,169.685c8.418-10.896,16.836-21.79,25.253-32.687
			c-38.997,50.313-84.177,95.586-134.508,134.565c10.896-8.418,21.79-16.835,32.687-25.253
			c-50.063,38.555-104.854,70.612-163.026,95.287c12.858-5.427,25.72-10.854,38.579-16.281
			c-60.275,25.368-123.691,42.61-188.477,51.498c14.312-1.923,28.621-3.846,42.933-5.769c-65.372,8.779-131.658,8.889-197.043,0.17
			c14.312,1.923,28.621,3.846,42.933,5.769c-64.853-8.83-128.285-26.251-188.605-51.638c12.859,5.427,25.719,10.854,38.579,16.279
			c-59.771-25.342-116.06-58.321-167.472-97.957c10.895,8.418,21.789,16.836,32.686,25.254
			c-51.084-39.597-96.996-85.527-136.588-136.615c8.418,10.896,16.836,21.791,25.254,32.686
			c-40.244-52.215-73.613-109.438-99.27-170.165c5.426,12.86,10.854,25.72,16.28,38.579
			c-26.489-63.173-44.438-129.645-53.644-197.518c1.924,14.311,3.848,28.622,5.771,42.933c-8.987-67.673-9.117-136.28-0.155-203.964
			c-1.922,14.311-3.847,28.622-5.77,42.934c9.025-66.789,26.816-132.157,52.891-194.307c-5.429,12.859-10.854,25.719-16.281,38.579
			c25.588-60.549,58.861-117.624,98.996-169.684c-8.417,10.895-16.835,21.79-25.252,32.686
			c38.998-50.312,84.177-95.586,134.508-134.564c-10.895,8.418-21.79,16.835-32.686,25.253
			c50.063-38.555,104.854-70.613,163.026-95.287c-12.858,5.427-25.72,10.854-38.579,16.281
			c60.275-25.368,123.693-42.61,188.479-51.498c-14.312,1.923-28.623,3.846-42.935,5.769c65.373-8.78,131.658-8.889,197.043-0.17
			c-14.312-1.923-28.621-3.846-42.933-5.769c64.852,8.83,128.283,26.25,188.605,51.638c-12.859-5.427-25.721-10.854-38.58-16.28
			c59.77,25.342,116.061,58.322,167.473,97.957c-10.896-8.418-21.791-16.835-32.687-25.253
			c51.084,39.596,96.995,85.526,136.587,136.615c-8.418-10.896-16.836-21.79-25.254-32.687
			c40.245,52.215,73.613,109.438,99.27,170.165c-5.426-12.858-10.854-25.719-16.279-38.579
			C6010.717,2320.815,6026.984,2376.396,6037.088,2433.237c5.428,12.859,10.854,25.72,16.281,38.579
			c14.356,24.269,33.67,43.581,57.938,57.938c37.299,21.849,82.762,27.746,124.445,16.28c40.369-11.104,75.369-38.117,96.518-74.22
			c5.428-12.86,10.854-25.72,16.281-38.579c7.69-28.622,7.69-57.244,0-85.865c-14.647-82.405-43.496-160.737-79.315-236.234
			c-34.616-72.963-81.933-139.175-134.259-200.449c-51.643-60.474-113.584-111.779-178.878-156.867
			c-65.38-45.147-138.494-78.892-213.173-105.492c-75.996-27.068-156.875-40.564-237.143-46.319
			c-34.195-2.452-68.559-2.351-102.754-0.002c-48.6,3.337-97.349,10.079-145.025,20.095c-33.947,7.131-67.352,16.78-99.955,28.607
			c-44.277,16.063-88.039,34.781-129.754,56.732c-29.633,15.593-58.118,33.336-85.344,52.82
			c-37.562,26.879-74.283,55.624-108.03,87.236c-24.149,22.622-46.694,46.941-67.644,72.548
			c-29.199,35.688-57.332,72.623-81.738,111.803c-17.553,28.177-33.137,57.565-46.855,87.79
			c-19.272,42.458-37.221,85.803-50.881,130.436c-9.879,32.279-17.473,65.245-22.979,98.544
			c-7.816,47.276-13.934,95.181-15.455,143.13c-1.107,34.977,0.333,70.018,3.988,104.813c5.153,49.076,12.154,98.286,23.848,146.284
			c8.285,34.017,19.012,67.425,31.844,99.992c17.416,44.2,36.312,88.014,59.422,129.57c16.412,29.509,34.903,57.847,55.086,84.911
			c27.836,37.325,56.564,73.897,88.996,107.349c23.108,23.836,47.865,46.06,73.889,66.67c36.302,28.752,72.977,56.62,112.682,80.492
			c28.359,17.049,57.899,32.11,88.256,45.27c42.805,18.554,85.592,36.214,130.479,49c32.196,9.17,65.045,16.013,98.187,20.71
			c47.438,6.727,94.453,12.654,142.391,12.872c48.672,0.222,96.363-5.884,144.523-12.491c34.797-4.772,69.205-11.931,103.011-21.464
			c45.899-12.944,89.761-31.258,133.41-50.349c30.88-13.505,60.757-29.271,89.479-46.896
			c39.547-24.265,76.551-52.762,112.479-82.006c25.7-20.919,49.901-43.656,72.592-67.802
			c31.577-33.604,60.033-70.396,86.981-107.729c19.392-26.86,36.902-55.063,52.615-84.221c22.059-40.934,40.32-84.156,56.92-127.515
			c11.998-31.34,21.793-63.51,29.549-96.155c9.166-38.576,14.222-77.646,19.424-116.933c3.426-25.875,5.551-51.89,6.379-77.978
			c2.131-67.24-5.68-134.634-17.248-200.771c-5.428-12.859-10.854-25.72-16.28-38.579c-14.356-24.269-33.67-43.581-57.938-57.938
			c-37.299-21.849-82.762-27.746-124.444-16.28c-40.369,11.104-75.37,38.117-96.519,74.22c-5.428,12.86-10.854,25.72-16.28,38.579
			C6029.396,2375.993,6029.396,2404.615,6037.088,2433.237z"/>
	</g>
</g>
<g>
	
		<ellipse transform="matrix(-0.1736 -0.9848 0.9848 -0.1736 1474.0977 12665.125)" fill="#FFFFFF" cx="6050.949" cy="5714.076" rx="758.456" ry="746.565"/>
	<g>
		<path fill="#FFFFFF" d="M6630.781,5627.11c1.852,10.586,3.5,21.203,4.944,31.853c-1.924-14.312-3.847-28.621-5.771-42.934
			c8.988,67.673,9.117,136.282,0.156,203.964c1.922-14.312,3.846-28.621,5.77-42.933c-9.026,66.789-26.817,132.156-52.891,194.306
			c5.428-12.858,10.854-25.72,16.281-38.578c-25.588,60.548-58.861,117.623-98.996,169.685
			c8.418-10.896,16.834-21.791,25.252-32.687c-38.998,50.312-84.177,95.585-134.508,134.563
			c10.896-8.418,21.791-16.836,32.686-25.254c-50.063,38.557-104.854,70.613-163.025,95.287c12.859-5.428,25.72-10.854,38.578-16.28
			c-60.275,25.367-123.691,42.61-188.477,51.498c14.311-1.924,28.622-3.847,42.934-5.771c-65.373,8.78-131.658,8.891-197.043,0.172
			c14.312,1.922,28.621,3.847,42.934,5.769c-64.852-8.83-128.284-26.25-188.605-51.638c12.858,5.426,25.72,10.854,38.58,16.28
			c-59.771-25.343-116.062-58.321-167.474-97.957c10.896,8.417,21.791,16.835,32.687,25.253
			c-51.084-39.596-96.996-85.527-136.586-136.615c8.418,10.896,16.834,21.791,25.252,32.686
			c-40.244-52.215-73.611-109.438-99.269-170.164c5.426,12.86,10.854,25.721,16.28,38.58
			c-26.488-63.174-44.438-129.645-53.643-197.518c1.924,14.311,3.848,28.621,5.77,42.934c-8.987-67.674-9.117-136.283-0.155-203.965
			c-1.923,14.312-3.847,28.621-5.769,42.933c9.024-66.788,26.816-132.157,52.888-194.308c-5.426,12.86-10.854,25.722-16.278,38.58
			c25.586-60.549,58.859-117.623,98.994-169.685c-8.418,10.896-16.834,21.79-25.252,32.687
			c38.998-50.313,84.176-95.586,134.508-134.565c-10.896,8.418-21.791,16.836-32.687,25.253
			c50.062-38.557,104.853-70.613,163.024-95.287c-12.858,5.427-25.719,10.854-38.578,16.279
			c60.275-25.367,123.691-42.609,188.477-51.498c-14.313,1.924-28.622,3.847-42.934,5.771c65.373-8.78,131.658-8.89,197.043-0.17
			c-14.311-1.924-28.621-3.847-42.933-5.771c64.853,8.83,128.285,26.252,188.606,51.64c-12.859-5.429-25.72-10.854-38.58-16.28
			c59.771,25.342,116.061,58.321,167.473,97.957c-10.895-8.418-21.79-16.836-32.686-25.252
			c51.084,39.596,96.996,85.526,136.588,136.615c-8.418-10.896-16.836-21.791-25.254-32.687
			c40.244,52.215,73.612,109.438,99.27,170.164c-5.427-12.858-10.854-25.72-16.281-38.578
			C6604.41,5514.688,6620.68,5570.271,6630.781,5627.11c5.428,12.86,10.854,25.72,16.28,38.58
			c14.356,24.269,33.67,43.58,57.938,57.938c37.299,21.85,82.762,27.746,124.444,16.28c40.369-11.104,75.37-38.117,96.519-74.22
			c5.428-12.859,10.854-25.72,16.28-38.58c7.69-28.621,7.69-57.244,0-85.865c-14.647-82.405-43.496-160.737-79.315-236.234
			c-34.615-72.962-81.933-139.175-134.258-200.447c-51.644-60.476-113.586-111.78-178.879-156.867
			c-65.381-45.147-138.494-78.893-213.174-105.492c-75.996-27.069-156.875-40.564-237.145-46.32
			c-34.195-2.451-68.559-2.35-102.753-0.002c-48.601,3.338-97.349,10.079-145.026,20.096c-33.945,7.133-67.351,16.779-99.953,28.607
			c-44.277,16.063-88.039,34.781-129.754,56.732c-29.633,15.592-58.117,33.338-85.345,52.819
			c-37.56,26.879-74.28,55.624-108.028,87.235c-24.148,22.623-46.693,46.941-67.644,72.549
			c-29.198,35.689-57.331,72.623-81.737,111.804c-17.553,28.179-33.138,57.565-46.855,87.791
			c-19.271,42.459-37.219,85.802-50.879,130.435c-9.879,32.279-17.473,65.244-22.979,98.545
			c-7.816,47.275-13.936,95.182-15.455,143.131c-1.108,34.977,0.332,70.017,3.987,104.813
			c5.153,49.076,12.155,98.286,23.849,146.284c8.285,34.017,19.012,67.423,31.844,99.991c17.415,44.2,36.311,88.014,59.422,129.57
			c16.411,29.508,34.902,57.847,55.085,84.91c27.835,37.326,56.565,73.897,88.995,107.349c23.109,23.837,47.867,46.06,73.889,66.67
			c36.303,28.752,72.976,56.62,112.683,80.491c28.358,17.05,57.899,32.111,88.255,45.271
			c42.805,18.554,85.591,36.213,130.479,48.998c32.197,9.172,65.045,16.013,98.187,20.711
			c47.438,6.726,94.453,12.652,142.392,12.871c48.67,0.222,96.362-5.885,144.521-12.49c34.797-4.773,69.206-11.932,103.012-21.465
			c45.899-12.943,89.76-31.258,133.41-50.348c30.881-13.506,60.756-29.271,89.479-46.896
			c39.546-24.265,76.551-52.762,112.479-82.006c25.699-20.918,49.902-43.656,72.592-67.803
			c31.578-33.604,60.033-70.395,86.982-107.729c19.391-26.859,36.902-55.063,52.615-84.222
			c22.059-40.935,40.32-84.155,56.92-127.515c11.998-31.34,21.792-63.512,29.549-96.155c9.166-38.576,14.223-77.646,19.424-116.935
			c3.426-25.875,5.551-51.889,6.379-77.977c2.131-67.241-5.68-134.635-17.248-200.771c-5.428-12.859-10.854-25.72-16.281-38.58
			c-14.356-24.268-33.67-43.58-57.938-57.938c-37.299-21.85-82.762-27.747-124.445-16.281
			c-40.369,11.104-75.369,38.117-96.518,74.22c-5.428,12.86-10.854,25.72-16.281,38.58
			C6623.09,5569.867,6623.09,5598.49,6630.781,5627.11z"/>
	</g>
</g>
<g>
	
		<ellipse transform="matrix(-0.1736 -0.9848 0.9848 -0.1736 787.3867 9187.6621)" fill="#FFFFFF" cx="4248.557" cy="4263.467" rx="758.456" ry="746.565"/>
	<g>
		<path fill="#FFFFFF" d="M4828.299,4176.586c1.852,10.586,3.5,21.203,4.943,31.852c-1.922-14.311-3.847-28.622-5.77-42.934
			c8.988,67.674,9.118,136.283,0.156,203.963c1.922-14.311,3.846-28.621,5.769-42.933c-9.024,66.788-26.817,132.157-52.89,194.306
			c5.429-12.858,10.854-25.719,16.281-38.578c-25.588,60.547-58.861,117.623-98.996,169.684
			c8.418-10.896,16.836-21.79,25.253-32.686c-38.997,50.312-84.177,95.584-134.508,134.564c10.896-8.418,21.79-16.836,32.687-25.254
			c-50.063,38.557-104.854,70.613-163.026,95.287c12.86-5.427,25.722-10.854,38.58-16.279
			c-60.276,25.367-123.692,42.609-188.478,51.496c14.312-1.922,28.623-3.846,42.935-5.768
			c-65.373,8.779-131.659,8.889-197.044,0.169c14.311,1.923,28.622,3.847,42.934,5.769c-64.853-8.83-128.285-26.25-188.606-51.638
			c12.858,5.427,25.719,10.854,38.579,16.28c-59.77-25.342-116.061-58.322-167.472-97.957c10.895,8.418,21.79,16.836,32.686,25.252
			c-51.084-39.596-96.996-85.525-136.587-136.613c8.418,10.895,16.835,21.79,25.253,32.686
			c-40.243-52.215-73.612-109.438-99.269-170.164c5.427,12.859,10.854,25.72,16.279,38.578
			c-26.487-63.172-44.437-129.645-53.641-197.517c1.923,14.312,3.846,28.622,5.77,42.933c-8.988-67.672-9.117-136.281-0.156-203.963
			c-1.924,14.311-3.846,28.621-5.77,42.933c9.025-66.789,26.817-132.157,52.889-194.306c-5.427,12.859-10.854,25.719-16.279,38.579
			c25.587-60.548,58.861-117.624,98.996-169.685c-8.417,10.896-16.835,21.791-25.252,32.687
			c38.998-50.312,84.177-95.586,134.508-134.565c-10.896,8.417-21.791,16.835-32.686,25.252
			c50.062-38.555,104.853-70.611,163.025-95.285c-12.86,5.427-25.72,10.854-38.579,16.279
			c60.276-25.367,123.692-42.609,188.478-51.498c-14.312,1.924-28.623,3.846-42.934,5.77c65.373-8.78,131.659-8.889,197.043-0.17
			c-14.311-1.924-28.622-3.846-42.934-5.77c64.853,8.83,128.285,26.251,188.606,51.639c-12.86-5.428-25.722-10.854-38.58-16.281
			c59.771,25.343,116.062,58.322,167.472,97.958c-10.896-8.417-21.789-16.835-32.686-25.253
			c51.084,39.596,96.995,85.527,136.587,136.615c-8.418-10.896-16.836-21.791-25.253-32.687
			c40.244,52.215,73.611,109.438,99.27,170.165c-5.429-12.86-10.854-25.719-16.281-38.579
			C4801.928,4064.166,4818.195,4119.746,4828.299,4176.586c5.426,12.86,10.854,25.72,16.279,38.58
			c14.357,24.268,33.67,43.58,57.938,57.938c37.299,21.849,82.761,27.746,124.444,16.278c40.369-11.104,75.369-38.117,96.519-74.217
			c5.426-12.86,10.854-25.72,16.278-38.58c7.692-28.621,7.692-57.244,0-85.865c-14.646-82.405-43.494-160.738-79.313-236.235
			c-34.616-72.962-81.934-139.174-134.259-200.448c-51.644-60.475-113.584-111.779-178.878-156.867
			c-65.38-45.147-138.494-78.892-213.173-105.491c-75.996-27.07-156.876-40.565-237.144-46.321
			c-34.195-2.451-68.558-2.35-102.754-0.001c-48.599,3.336-97.348,10.079-145.025,20.095c-33.947,7.133-67.352,16.779-99.954,28.607
			c-44.278,16.063-88.04,34.781-129.754,56.73c-29.633,15.594-58.118,33.338-85.343,52.821
			c-37.561,26.879-74.283,55.623-108.029,87.235c-24.15,22.623-46.694,46.94-67.645,72.549
			c-29.198,35.689-57.332,72.623-81.737,111.803c-17.552,28.178-33.138,57.566-46.855,87.79
			c-19.271,42.459-37.22,85.804-50.88,130.436c-9.879,32.28-17.473,65.245-22.979,98.545c-7.816,47.276-13.936,95.181-15.455,143.13
			c-1.109,34.977,0.333,70.018,3.986,104.813c5.155,49.076,12.156,98.285,23.848,146.283c8.285,34.017,19.013,67.424,31.845,99.992
			c17.415,44.199,36.31,88.014,59.422,129.569c16.411,29.509,34.902,57.847,55.085,84.911
			c27.836,37.326,56.565,73.896,88.995,107.348c23.109,23.838,47.867,46.062,73.89,66.67
			c36.302,28.752,72.976,56.621,112.682,80.492c28.358,17.049,57.898,32.111,88.256,45.271c42.804,18.556,85.591,36.214,130.48,49
			c32.196,9.171,65.043,16.013,98.185,20.711c47.438,6.726,94.453,12.653,142.392,12.871c48.67,0.222,96.362-5.884,144.522-12.49
			c34.797-4.772,69.206-11.931,103.011-21.465c45.9-12.942,89.76-31.257,133.41-50.349c30.881-13.506,60.756-29.271,89.479-46.896
			c39.546-24.267,76.551-52.763,112.479-82.006c25.701-20.92,49.901-43.658,72.592-67.804
			c31.576-33.604,60.033-70.395,86.981-107.729c19.392-26.859,36.901-55.063,52.615-84.221
			c22.058-40.935,40.319-84.156,56.92-127.517c11.998-31.34,21.791-63.51,29.549-96.153c9.166-38.576,14.222-77.646,19.423-116.935
			c3.426-25.875,5.552-51.89,6.378-77.978c2.133-67.24-5.681-134.633-17.248-200.771c-5.426-12.86-10.854-25.719-16.278-38.579
			c-14.358-24.268-33.672-43.581-57.939-57.938c-37.299-21.851-82.762-27.748-124.445-16.281
			c-40.367,11.104-75.369,38.117-96.518,74.219c-5.426,12.86-10.854,25.719-16.279,38.579
			C4820.605,4119.342,4820.605,4147.965,4828.299,4176.586z"/>
	</g>
</g>
<g>
	
		<ellipse transform="matrix(-0.1736 -0.9848 0.9848 -0.1736 -2429.4551 10327.9609)" fill="#FFFFFF" cx="3118.567" cy="6183.306" rx="758.459" ry="746.565"/>
	<g>
		<path fill="#FFFFFF" d="M3698.389,6096.5c1.853,10.586,3.5,21.201,4.944,31.851c-1.923-14.312-3.846-28.622-5.769-42.933
			c8.987,67.672,9.116,136.281,0.154,203.965c1.924-14.313,3.846-28.623,5.771-42.935c-9.026,66.789-26.818,132.157-52.89,194.308
			c5.428-12.86,10.854-25.721,16.281-38.58c-25.588,60.549-58.861,117.625-98.996,169.684c8.417-10.895,16.835-21.789,25.253-32.686
			c-38.998,50.313-84.177,95.586-134.508,134.565c10.896-8.418,21.791-16.836,32.687-25.254
			c-50.063,38.556-104.854,70.612-163.026,95.287c12.86-5.427,25.719-10.854,38.579-16.28
			c-60.275,25.369-123.693,42.61-188.477,51.498c14.311-1.922,28.621-3.847,42.933-5.769c-65.373,8.778-131.658,8.888-197.043,0.169
			c14.312,1.923,28.622,3.848,42.933,5.77c-64.852-8.83-128.284-26.252-188.605-51.639c12.86,5.427,25.72,10.854,38.579,16.279
			c-59.769-25.342-116.06-58.321-167.471-97.957c10.895,8.418,21.791,16.836,32.686,25.252
			c-51.084-39.596-96.996-85.526-136.587-136.615c8.417,10.896,16.835,21.791,25.252,32.688
			c-40.244-52.216-73.613-109.438-99.269-170.165c5.427,12.858,10.854,25.72,16.28,38.578
			c-26.488-63.174-44.438-129.646-53.642-197.519c1.923,14.312,3.846,28.623,5.769,42.935
			c-8.987-67.674-9.116-136.282-0.155-203.965c-1.923,14.312-3.847,28.623-5.77,42.935c9.026-66.789,26.818-132.158,52.89-194.307
			c-5.428,12.859-10.854,25.721-16.281,38.579c25.588-60.549,58.861-117.623,98.996-169.685
			c-8.417,10.896-16.835,21.791-25.253,32.687c38.998-50.312,84.177-95.586,134.508-134.563
			c-10.896,8.418-21.791,16.836-32.687,25.252c50.063-38.556,104.854-70.611,163.026-95.285
			c-12.858,5.426-25.719,10.854-38.579,16.279c60.275-25.368,123.693-42.609,188.477-51.498c-14.311,1.923-28.621,3.848-42.933,5.77
			c65.373-8.779,131.659-8.89,197.043-0.17c-14.312-1.922-28.622-3.847-42.935-5.77c64.854,8.83,128.285,26.251,188.606,51.639
			c-12.858-5.428-25.719-10.854-38.579-16.28c59.77,25.343,116.061,58.321,167.471,97.957c-10.895-8.417-21.79-16.835-32.686-25.253
			c51.084,39.596,96.996,85.527,136.587,136.615c-8.417-10.896-16.835-21.791-25.252-32.686
			c40.243,52.215,73.612,109.438,99.269,170.164c-5.427-12.859-10.854-25.72-16.279-38.58
			C3672.018,5984.078,3688.286,6039.658,3698.389,6096.5c5.428,12.858,10.854,25.719,16.281,38.578
			c14.357,24.269,33.67,43.58,57.938,57.938c37.3,21.849,82.762,27.746,124.445,16.278c40.369-11.104,75.37-38.117,96.518-74.219
			c5.427-12.859,10.854-25.719,16.281-38.578c7.691-28.623,7.691-57.244,0-85.867c-14.647-82.404-43.496-160.736-79.315-236.232
			c-34.617-72.963-81.933-139.176-134.259-200.449c-51.645-60.475-113.585-111.778-178.879-156.867
			c-65.38-45.146-138.494-78.891-213.174-105.49c-75.996-27.069-156.875-40.565-237.144-46.32
			c-34.195-2.452-68.557-2.35-102.754-0.001c-48.599,3.336-97.348,10.078-145.024,20.095c-33.946,7.133-67.352,16.779-99.955,28.606
			c-44.277,16.063-88.039,34.782-129.754,56.731c-29.633,15.594-58.116,33.338-85.343,52.82
			c-37.56,26.879-74.282,55.623-108.028,87.236c-24.15,22.621-46.694,46.939-67.645,72.547
			c-29.198,35.689-57.331,72.623-81.737,111.804c-17.553,28.177-33.138,57.565-46.855,87.79
			c-19.272,42.459-37.22,85.803-50.879,130.434c-9.879,32.279-17.475,65.244-22.979,98.545
			c-7.815,47.275-13.934,95.182-15.454,143.129c-1.108,34.978,0.332,70.019,3.987,104.813
			c5.155,49.076,12.156,98.287,23.848,146.285c8.286,34.017,19.012,67.424,31.844,99.992
			c17.416,44.199,36.311,88.015,59.423,129.569c16.411,29.508,34.903,57.848,55.085,84.91
			c27.836,37.328,56.565,73.898,88.996,107.351c23.109,23.836,47.867,46.06,73.889,66.67c36.302,28.752,72.975,56.62,112.681,80.492
			c28.359,17.049,57.899,32.11,88.255,45.271c42.805,18.555,85.592,36.213,130.48,49c32.197,9.17,65.044,16.012,98.185,20.711
			c47.438,6.726,94.452,12.652,142.392,12.871c48.671,0.222,96.361-5.885,144.521-12.49c34.797-4.773,69.207-11.932,103.012-21.465
			c45.899-12.943,89.761-31.258,133.41-50.349c30.88-13.506,60.758-29.271,89.48-46.896c39.546-24.266,76.551-52.763,112.479-82.006
			c25.701-20.92,49.903-43.658,72.591-67.804c31.578-33.604,60.033-70.396,86.984-107.729c19.39-26.86,36.902-55.063,52.615-84.222
			c22.058-40.935,40.32-84.155,56.92-127.515c11.998-31.34,21.792-63.512,29.549-96.154c9.167-38.577,14.222-77.646,19.423-116.934
			c3.427-25.877,5.552-51.891,6.379-77.979c2.132-67.241-5.679-134.635-17.248-200.771c-5.427-12.859-10.854-25.72-16.28-38.578
			c-14.357-24.27-33.67-43.582-57.938-57.939c-37.299-21.85-82.761-27.746-124.445-16.279c-40.368,11.104-75.37,38.117-96.517,74.22
			c-5.428,12.858-10.854,25.72-16.281,38.578C3690.697,6039.256,3690.697,6067.877,3698.389,6096.5z"/>
	</g>
</g>
</svg>
