<?xml version="1.0" encoding="utf-8"?>
<!-- Generator: Adobe Illustrator 16.0.0, SVG Export Plug-In . SVG Version: 6.00 Build 0)  -->
<!DOCTYPE svg PUBLIC "-//W3C//DTD SVG 1.1//EN" "http://www.w3.org/Graphics/SVG/1.1/DTD/svg11.dtd">
<svg version="1.1" id="Ebene_1" xmlns="http://www.w3.org/2000/svg" xmlns:xlink="http://www.w3.org/1999/xlink" x="0px" y="0px"
	 width="8503.94px" height="8503.94px" viewBox="0 0 8503.94 8503.94" enable-background="new 0 0 8503.94 8503.94"
	 xml:space="preserve">
<g>
	
		<ellipse transform="matrix(0.999 -0.0443 0.0443 0.999 -134.7642 168.5977)" fill="#FFFFFF" cx="3735.176" cy="3123.778" rx="2095" ry="2250.001"/>
	<g>
		<path d="M5556.117,3030.936c6.199,144.095-0.059,288.424-19.139,431.392c3.239-24.103,6.478-48.206,9.717-72.309
			c-28.172,206.9-83.176,409.493-164.36,601.9c9.14-21.659,18.28-43.317,27.42-64.976
			c-75.861,178.478-173.757,347.006-292.035,500.727c14.177-18.351,28.354-36.7,42.531-55.05
			c-112.682,145.64-243.026,276.979-388.665,389.722c18.35-14.177,36.699-28.354,55.05-42.531
			c-138.866,106.883-290.626,196.108-452.03,264.426c21.658-9.141,43.316-18.28,64.975-27.42
			c-160.449,67.355-329.058,113.428-501.494,136.845c24.103-3.238,48.206-6.478,72.309-9.716
			c-174.029,23.09-350.519,23.248-524.557,0.172c24.103,3.239,48.206,6.479,72.309,9.717
			c-172.996-23.473-342.123-69.83-503.137-137.258c21.659,9.141,43.317,18.28,64.975,27.42
			c-165.081-69.693-320.271-160.917-462.25-270.178c18.35,14.177,36.699,28.354,55.049,42.531
			c-148.028-114.564-280.613-247.945-395.265-395.861c14.177,18.35,28.354,36.699,42.531,55.049
			c-120.817-156.727-220.767-328.648-298.013-510.812c9.14,21.658,18.28,43.316,27.42,64.975
			c-82.25-195.394-137.768-401.136-166.006-611.218c3.239,24.103,6.477,48.206,9.716,72.308
			c-28.204-214.138-28.368-431.457,0.206-645.563c-3.239,24.103-6.478,48.205-9.716,72.308
			c28.171-206.9,83.175-409.493,164.36-601.9c-9.14,21.658-18.28,43.316-27.42,64.975
			c75.862-178.477,173.757-347.006,292.036-500.726c-14.177,18.35-28.354,36.7-42.531,55.05
			c112.682-145.64,243.027-276.979,388.665-389.723c-18.35,14.177-36.7,28.354-55.049,42.531
			c138.866-106.882,290.626-196.108,452.03-264.425c-21.658,9.14-43.316,18.28-64.975,27.42
			c160.449-67.354,329.058-113.428,501.495-136.844c-24.103,3.239-48.205,6.477-72.308,9.716
			c174.029-23.09,350.519-23.249,524.556-0.173c-24.103-3.239-48.206-6.478-72.309-9.716
			c172.996,23.473,342.122,69.83,503.138,137.257c-21.659-9.14-43.317-18.28-64.977-27.42
			c165.082,69.693,320.271,160.917,462.25,270.178c-18.35-14.177-36.699-28.354-55.049-42.531
			c148.028,114.564,280.612,247.945,395.265,395.861c-14.177-18.35-28.354-36.699-42.531-55.049
			c120.817,156.727,220.767,328.648,298.013,510.812c-9.141-21.659-18.279-43.317-27.42-64.976
			c82.25,195.395,137.768,401.136,166.006,611.218c-3.238-24.103-6.477-48.205-9.716-72.308
			C5546.549,2887.867,5552.844,2959.294,5556.117,3030.936c3.35,73.298,26.99,139.656,79.667,192.333
			c50.78,50.78,120.481,79.667,192.333,79.667c143.147,0,278.773-123.784,272-272c-21.056-460.78-154.5-916.727-402.906-1306.906
			c-233.08-366.107-561.415-678.662-950.463-874.156c-393.084-197.522-842.692-287.817-1280.813-231.056
			c-121.239,15.708-240.502,35.541-358.181,69.128c-114.912,32.798-225.995,77.624-334.814,126.737
			c-197.08,88.947-376.217,212.163-540.424,352.166c-165.531,141.131-307.495,309.447-429.625,489.026
			c-125.094,183.937-221.014,387.81-294.274,597.506c-76.142,217.943-117.274,447.715-134.37,677.606
			c-17.675,237.681,2.486,477.566,47.315,711.325c85.141,443.968,295.756,858.425,590.416,1199.521
			c283.131,327.75,661.361,573.377,1073.919,703.639c209.044,66.004,432.382,98.623,651.397,100.027
			c124.09,0.795,246.588-12.811,369.258-30.619c98.169-14.252,195.138-36.41,290.001-65.35
			c413.506-126.146,791.316-373.537,1073.725-700.683c291.87-338.107,497.074-750.225,580.843-1189.777
			c39.372-206.589,58.04-417.917,48.995-628.134c-3.15-73.219-27.101-139.767-79.667-192.333
			c-50.78-50.78-120.481-79.667-192.333-79.667C5684.67,2758.936,5549.74,2882.709,5556.117,3030.936z"/>
	</g>
</g>
<g>
	<g>
		<path d="M4634.822,5273.711c20.742,30.255,41.484,60.51,62.227,90.764c55.664,81.192,111.328,162.385,166.992,243.576
			c80.742,117.771,161.484,235.541,242.227,353.313c95.976,139.99,191.951,279.98,287.928,419.971
			c101.365,147.852,202.73,295.703,304.096,443.556c96.91,141.354,193.822,282.709,290.732,424.063
			c82.612,120.498,165.225,240.997,247.838,361.496c58.469,85.284,116.939,170.568,175.408,255.852
			c24.483,35.712,48.967,71.423,73.449,107.134c0.201,0.292,0.402,0.585,0.602,0.878c15.402,19.936,30.805,39.87,46.206,59.806
			c36.87,36.623,80.335,61.954,130.395,75.994c76.271,20.979,159.454,10.188,227.7-29.788
			c66.057-38.695,115.482-102.737,135.8-176.601c3.519-26.185,7.037-52.37,10.556-78.556
			c-0.166-53.34-13.613-103.055-40.344-149.145c-20.743-30.255-41.485-60.51-62.228-90.764
			c-55.664-81.192-111.329-162.385-166.993-243.576c-80.742-117.771-161.483-235.541-242.226-353.313
			c-95.976-139.99-191.951-279.98-287.927-419.971c-101.365-147.852-202.73-295.703-304.097-443.556
			c-96.911-141.354-193.821-282.709-290.732-424.063c-82.612-120.498-165.226-240.997-247.837-361.496
			c-58.471-85.284-116.939-170.568-175.41-255.852c-24.482-35.712-48.966-71.423-73.449-107.134c-0.2-0.292-0.4-0.585-0.602-0.878
			c-15.401-19.936-30.803-39.87-46.205-59.806c-36.871-36.623-80.336-61.954-130.395-75.994
			c-76.271-20.979-159.453-10.188-227.7,29.788c-66.056,38.695-115.482,102.737-135.8,176.601
			c-3.519,26.185-7.037,52.37-10.556,78.556C4594.644,5177.906,4608.092,5227.621,4634.822,5273.711L4634.822,5273.711z"/>
	</g>
</g>
</svg>
