<?xml version="1.0" encoding="utf-8"?>
<!-- Generator: Adobe Illustrator 16.0.0, SVG Export Plug-In . SVG Version: 6.00 Build 0)  -->
<!DOCTYPE svg PUBLIC "-//W3C//DTD SVG 1.1//EN" "http://www.w3.org/Graphics/SVG/1.1/DTD/svg11.dtd">
<svg version="1.1" id="Ebene_1" xmlns="http://www.w3.org/2000/svg" xmlns:xlink="http://www.w3.org/1999/xlink" x="0px" y="0px"
	 width="8503.94px" height="8503.94px" viewBox="0 0 8503.94 8503.94" enable-background="new 0 0 8503.94 8503.94"
	 xml:space="preserve">
<g>
	<g>
		<path fill="#FFFFFF" d="M1171.034,2681.762c195.884-189.163,391.768-378.326,587.652-567.489
			c197.348-190.577,394.696-381.153,592.043-571.729c0.007-0.007,0.015-0.014,0.021-0.021c-172.063,0-344.125,0-516.188,0
			c61.739,63.933,123.478,127.865,185.217,191.798c164.186,170.02,328.372,340.04,492.559,510.06
			c235.086,243.439,470.173,486.879,705.26,730.318c274.441,284.192,548.882,568.384,823.322,852.576
			c282.249,292.277,564.497,584.554,846.746,876.831c258.511,267.695,517.021,535.39,775.53,803.085
			c203.225,210.445,406.449,420.891,609.674,631.337c116.394,120.527,232.787,241.057,349.18,361.586
			c15.778,16.338,31.557,32.678,47.335,49.016c0-172.063,0-344.125,0-516.188c-195.884,189.162-391.769,378.326-587.652,567.488
			c-197.348,190.576-394.695,381.153-592.042,571.729c-0.008,0.007-0.016,0.015-0.022,0.021c172.063,0,344.125,0,516.188,0
			c-61.739-63.933-123.478-127.865-185.217-191.798c-164.187-170.02-328.372-340.039-492.558-510.059
			c-235.088-243.439-470.174-486.879-705.261-730.318c-274.44-284.192-548.882-568.385-823.323-852.576
			c-282.249-292.277-564.498-584.554-846.746-876.831c-258.51-267.694-517.02-535.39-775.53-803.084
			c-203.225-210.445-406.45-420.891-609.675-631.336c-116.393-120.528-232.786-241.057-349.18-361.586
			c-15.778-16.339-31.556-32.678-47.334-49.017c-138.178-143.086-377.403-138.785-516.188,0
			c-142.459,142.46-138.122,373.159,0,516.188c61.739,63.933,123.479,127.865,185.217,191.798
			c164.186,170.02,328.372,340.039,492.558,510.059c235.087,243.439,470.174,486.879,705.26,730.318
			c274.441,284.192,548.882,568.384,823.323,852.575c282.249,292.277,564.497,584.555,846.746,876.832
			c258.51,267.694,517.02,535.389,775.53,803.084c203.225,210.445,406.449,420.891,609.674,631.336
			c116.394,120.529,232.787,241.058,349.18,361.586c15.778,16.34,31.557,32.678,47.335,49.017
			c139.958,144.932,375.052,136.294,516.188,0c195.884-189.163,391.769-378.325,587.652-567.489
			c197.348-190.576,394.695-381.152,592.042-571.729c0.008-0.008,0.016-0.014,0.022-0.021
			c144.932-139.959,136.294-375.052,0-516.188c-61.739-63.933-123.478-127.865-185.217-191.798
			c-164.187-170.021-328.372-340.04-492.558-510.06c-235.088-243.439-470.174-486.879-705.261-730.318
			c-274.44-284.191-548.882-568.383-823.323-852.575c-282.248-292.277-564.496-584.554-846.745-876.831
			c-258.51-267.695-517.02-535.39-775.53-803.085c-203.225-210.445-406.449-420.891-609.674-631.336
			c-116.394-120.529-232.787-241.058-349.18-361.586c-15.778-16.339-31.557-32.677-47.335-49.016
			c-139.958-144.932-375.052-136.293-516.188,0c-195.884,189.163-391.769,378.326-587.652,567.489
			c-197.348,190.577-394.695,381.153-592.043,571.729c-0.008,0.007-0.015,0.014-0.022,0.021
			c-143.086,138.178-138.785,377.403,0,516.188C797.306,2824.221,1028.005,2819.883,1171.034,2681.762z"/>
	</g>
</g>
<g>
	<g>
		<path fill="#FFFFFF" d="M2417.188,7227.74c-195.884-189.163-391.769-378.326-587.652-567.489
			c-197.348-190.576-394.695-381.152-592.043-571.729c-0.008-0.006-0.015-0.014-0.022-0.021c0,171.827,0,343.653,0,515.48
			c61.739-63.933,123.479-127.865,185.217-191.798c164.186-170.02,328.372-340.039,492.558-510.059
			c235.087-243.439,470.173-486.879,705.26-730.318c274.441-284.191,548.881-568.384,823.323-852.576
			c282.249-292.276,564.497-584.554,846.745-876.831c258.51-267.694,517.021-535.39,775.53-803.084
			c203.226-210.445,406.45-420.891,609.675-631.336c116.393-120.528,232.786-241.057,349.18-361.586
			c15.777-16.339,31.557-32.678,47.334-49.017c-171.826,0-343.654,0-515.48,0c195.884,189.163,391.768,378.326,587.652,567.489
			c197.348,190.577,394.695,381.153,592.043,571.73c0.007,0.007,0.014,0.014,0.021,0.021c0-171.827,0-343.654,0-515.48
			c-61.739,63.933-123.479,127.865-185.217,191.798c-164.187,170.02-328.373,340.039-492.559,510.059
			c-235.086,243.439-470.174,486.879-705.26,730.318c-274.441,284.191-548.882,568.383-823.322,852.575
			c-282.249,292.277-564.498,584.554-846.746,876.831c-258.51,267.695-517.02,535.39-775.53,803.084
			c-203.225,210.445-406.449,420.892-609.674,631.337c-116.394,120.528-232.787,241.058-349.18,361.586
			c-15.778,16.339-31.557,32.678-47.335,49.017c-137.932,142.833-142.264,373.217,0,515.48
			c138.595,138.595,377.493,142.891,515.481,0c61.739-63.933,123.478-127.865,185.217-191.798
			c164.186-170.02,328.372-340.039,492.558-510.059c235.086-243.439,470.173-486.879,705.26-730.318
			c274.44-284.192,548.882-568.384,823.322-852.575c282.249-292.277,564.497-584.555,846.746-876.831
			c258.51-267.694,517.02-535.39,775.529-803.084c203.226-210.446,406.45-420.891,609.675-631.336
			c116.393-120.528,232.786-241.058,349.18-361.586c15.777-16.339,31.557-32.678,47.334-49.017
			c136.107-140.942,144.732-375.714,0-515.48c-195.884-189.163-391.768-378.326-587.652-567.489
			c-197.348-190.577-394.695-381.153-592.043-571.73c-0.007-0.007-0.014-0.014-0.021-0.021
			c-140.942-136.107-375.714-144.733-515.48,0c-61.739,63.933-123.479,127.865-185.217,191.798
			c-164.187,170.02-328.373,340.039-492.559,510.059c-235.087,243.439-470.174,486.879-705.26,730.318
			c-274.441,284.192-548.881,568.384-823.323,852.576c-282.249,292.276-564.497,584.554-846.746,876.831
			c-258.51,267.695-517.02,535.39-775.53,803.085c-203.225,210.445-406.45,420.891-609.674,631.336
			c-116.394,120.528-232.787,241.057-349.18,361.586c-15.778,16.339-31.557,32.678-47.334,49.017
			c-136.106,140.942-144.733,375.714,0,515.48c195.884,189.163,391.768,378.326,587.652,567.489
			c197.348,190.576,394.696,381.152,592.043,571.729c0.007,0.008,0.015,0.015,0.021,0.021
			c142.834,137.933,373.217,142.265,515.481,0C2555.783,7604.626,2560.079,7365.729,2417.188,7227.74z"/>
	</g>
</g>
</svg>
